<svg width="564" height="572" viewBox="0 0 564 572" fill="none" xmlns="http://www.w3.org/2000/svg">
<path d="M265 346V361.848L92 389.956V407" stroke="#05572B" stroke-width="4" stroke-dasharray="2 2"/>
<path d="M298 346V361.848L470 389.956V407" stroke="#05572B" stroke-width="4" stroke-dasharray="2 2"/>
<path d="M282 346V405" stroke="#05572B" stroke-width="4" stroke-dasharray="2 2"/>
<path opacity="0.8" d="M52.1808 90.234V84.2H53.3428V90.234C53.3428 92.026 54.2528 93.16 56.1428 93.16C58.0328 93.16 58.9428 92.026 58.9428 90.234V84.2H60.1048V90.234C60.1048 92.684 58.7048 94.224 56.1428 94.224C53.5808 94.224 52.1808 92.684 52.1808 90.234ZM64.9223 94.224C62.8923 94.224 61.6883 93.3 61.5903 91.704H62.7383C62.8363 92.698 63.6063 93.244 64.9223 93.244C66.0563 93.244 66.7703 92.796 66.7703 92.068C66.7703 91.34 66.0703 91.074 65.1883 90.92L64.3063 90.766C63.0463 90.542 61.7723 90.178 61.7723 88.708C61.7723 87.378 62.8363 86.552 64.6563 86.552C66.5043 86.552 67.7083 87.518 67.7083 89.072H66.5603C66.5603 88.12 65.8043 87.532 64.6563 87.532C63.5363 87.532 62.8923 87.966 62.8923 88.666C62.8923 89.38 63.6343 89.604 64.5583 89.772L65.3703 89.926C66.6443 90.164 67.9183 90.542 67.9183 92.026C67.9183 93.37 66.7563 94.224 64.9223 94.224ZM72.8071 94.224C70.7211 94.224 69.2231 92.964 69.2231 90.36C69.2231 87.938 70.6791 86.552 72.7791 86.552C74.7391 86.552 76.1951 88.008 76.1951 90.052C76.1951 90.22 76.1811 90.388 76.1671 90.57H70.3431C70.3711 92.32 71.4071 93.244 72.8071 93.244C74.0111 93.244 74.7811 92.46 74.9911 91.466H76.1391C75.9291 93.118 74.5991 94.224 72.8071 94.224ZM70.3431 89.786H75.0471C74.9631 88.428 74.1231 87.532 72.7371 87.532C71.4351 87.532 70.4411 88.302 70.3431 89.786ZM77.913 94V86.776H78.991L79.033 89.002H79.089C79.411 87.462 80.307 86.664 82.099 86.664V87.672C81.091 87.714 80.377 87.966 79.887 88.456C79.271 89.072 79.033 90.066 79.033 91.424V94H77.913ZM90.1193 94.126C87.8233 93.552 86.3813 91.802 86.3813 89.058C86.3813 85.936 88.3973 83.976 91.1973 83.976C93.9973 83.976 96.0133 85.936 96.0133 89.058C96.0133 91.494 94.8793 93.552 92.3033 93.902V93.986L95.9433 94.126V95.582L90.1193 94.126ZM87.5853 89.058C87.5853 91.55 89.1113 93.132 91.1973 93.132C93.2833 93.132 94.8093 91.55 94.8093 89.058C94.8093 86.608 93.2833 85.068 91.1973 85.068C89.1113 85.068 87.5853 86.608 87.5853 89.058ZM100.273 94.224C98.7048 94.224 97.6688 93.16 97.6688 91.578V86.776H98.7888V91.214C98.7888 92.404 99.5588 93.188 100.721 93.188C102.037 93.188 102.919 92.11 102.919 90.5V86.776H104.053V94H102.989L102.919 92.222H102.835C102.443 93.51 101.533 94.224 100.273 94.224ZM109.079 94.224C106.993 94.224 105.495 92.964 105.495 90.36C105.495 87.938 106.951 86.552 109.051 86.552C111.011 86.552 112.467 88.008 112.467 90.052C112.467 90.22 112.453 90.388 112.439 90.57H106.615C106.643 92.32 107.679 93.244 109.079 93.244C110.283 93.244 111.053 92.46 111.263 91.466H112.411C112.201 93.118 110.871 94.224 109.079 94.224ZM106.615 89.786H111.319C111.235 88.428 110.395 87.532 109.009 87.532C107.707 87.532 106.713 88.302 106.615 89.786ZM114.184 94V86.776H115.262L115.304 89.002H115.36C115.682 87.462 116.578 86.664 118.37 86.664V87.672C117.362 87.714 116.648 87.966 116.158 88.456C115.542 89.072 115.304 90.066 115.304 91.424V94H114.184ZM119.849 86.776H120.969V94H119.849V86.776ZM119.653 84.83C119.653 84.41 119.989 84.074 120.409 84.074C120.829 84.074 121.165 84.41 121.165 84.83C121.165 85.25 120.829 85.586 120.409 85.586C119.989 85.586 119.653 85.25 119.653 84.83ZM126.182 94.224C124.096 94.224 122.598 92.964 122.598 90.36C122.598 87.938 124.054 86.552 126.154 86.552C128.114 86.552 129.57 88.008 129.57 90.052C129.57 90.22 129.556 90.388 129.542 90.57H123.718C123.746 92.32 124.782 93.244 126.182 93.244C127.386 93.244 128.156 92.46 128.366 91.466H129.514C129.304 93.118 127.974 94.224 126.182 94.224ZM123.718 89.786H128.422C128.338 88.428 127.498 87.532 126.112 87.532C124.81 87.532 123.816 88.302 123.718 89.786ZM134.307 94.224C132.277 94.224 131.073 93.3 130.975 91.704H132.123C132.221 92.698 132.991 93.244 134.307 93.244C135.441 93.244 136.155 92.796 136.155 92.068C136.155 91.34 135.455 91.074 134.573 90.92L133.691 90.766C132.431 90.542 131.157 90.178 131.157 88.708C131.157 87.378 132.221 86.552 134.041 86.552C135.889 86.552 137.093 87.518 137.093 89.072H135.945C135.945 88.12 135.189 87.532 134.041 87.532C132.921 87.532 132.277 87.966 132.277 88.666C132.277 89.38 133.019 89.604 133.943 89.772L134.755 89.926C136.029 90.164 137.303 90.542 137.303 92.026C137.303 93.37 136.141 94.224 134.307 94.224Z" fill="white"/>
<circle cx="94" cy="139" r="29.5" fill="#111111" stroke="#D9D9D9" stroke-width="3" stroke-dasharray="2 2"/>
<path d="M97 131V138H87.17L86.58 138.59L86 139.17V131H97ZM98 129H85C84.45 129 84 129.45 84 130V144L88 140H98C98.55 140 99 139.55 99 139V130C99 129.45 98.55 129 98 129ZM103 133H101V142H88V144C88 144.55 88.45 145 89 145H100L104 149V134C104 133.45 103.55 133 103 133Z" fill="white"/>
<path opacity="0.8" d="M226.539 94V84.2H227.715L227.659 89.506L227.729 89.52C228.653 88.442 229.535 87.532 230.417 86.608L232.713 84.2H234.169L231.845 86.622C231.327 87.168 230.697 87.812 230.151 88.358L230.165 88.428C230.991 88.526 231.509 88.904 231.985 89.702L234.547 94H233.259L231.159 90.444C230.627 89.534 230.151 89.324 229.269 89.31L227.715 90.934V94H226.539ZM236.053 94V86.776H237.117L237.187 88.554H237.271C237.663 87.266 238.573 86.552 239.833 86.552C241.401 86.552 242.437 87.616 242.437 89.198V94H241.317V89.464C241.317 88.246 240.701 87.588 239.413 87.588C238.097 87.588 237.187 88.666 237.187 90.276V94H236.053ZM247.918 94.224C245.944 94.224 244.152 92.74 244.152 90.36C244.152 88.036 245.944 86.552 247.918 86.552C249.892 86.552 251.684 88.036 251.684 90.36C251.684 92.74 249.892 94.224 247.918 94.224ZM245.3 90.36C245.3 92.138 246.378 93.216 247.918 93.216C249.458 93.216 250.536 92.138 250.536 90.36C250.536 88.624 249.458 87.56 247.918 87.56C246.378 87.56 245.3 88.624 245.3 90.36ZM254.882 94L252.208 86.776H253.398L254.336 89.352C254.728 90.444 255.036 91.242 255.456 92.516H255.512C255.89 91.228 256.142 90.444 256.478 89.338L257.262 86.776H258.326L259.11 89.338C259.446 90.444 259.698 91.228 260.076 92.516H260.132C260.552 91.242 260.86 90.444 261.252 89.352L262.19 86.776H263.38L260.706 94H259.614L257.822 88.176H257.766L255.974 94H254.882ZM264.503 84.2H265.623V94H264.503V84.2ZM270.896 94.224C268.81 94.224 267.312 92.964 267.312 90.36C267.312 87.938 268.768 86.552 270.868 86.552C272.828 86.552 274.284 88.008 274.284 90.052C274.284 90.22 274.27 90.388 274.256 90.57H268.432C268.46 92.32 269.496 93.244 270.896 93.244C272.1 93.244 272.87 92.46 273.08 91.466H274.228C274.018 93.118 272.688 94.224 270.896 94.224ZM268.432 89.786H273.136C273.052 88.428 272.212 87.532 270.826 87.532C269.524 87.532 268.53 88.302 268.432 89.786ZM275.652 90.402C275.652 88.092 276.954 86.552 278.914 86.552C280.16 86.552 281.112 87.28 281.574 88.596H281.63V84.2H282.75V94H281.686L281.63 92.208H281.574C281.112 93.524 280.16 94.252 278.914 94.252C276.954 94.252 275.652 92.712 275.652 90.402ZM276.786 90.402C276.786 92.11 277.752 93.244 279.208 93.244C280.664 93.244 281.63 92.11 281.63 90.766V90.038C281.63 88.694 280.664 87.56 279.208 87.56C277.752 87.56 276.786 88.694 276.786 90.402ZM287.625 91.34C287.065 91.34 286.575 91.242 286.155 91.06C285.749 91.256 285.553 91.606 285.553 91.928C285.553 92.348 285.903 92.754 286.575 92.754H289.095C290.397 92.754 291.167 93.412 291.167 94.49C291.167 95.904 289.921 96.674 287.527 96.674C285.189 96.674 284.195 96.03 284.195 94.994C284.195 94.294 284.783 93.86 285.455 93.636V93.58C284.839 93.356 284.517 92.922 284.517 92.348C284.517 91.718 284.979 91.214 285.791 90.934V90.864C285.133 90.43 284.769 89.744 284.769 88.918C284.769 87.658 285.581 86.804 287.121 86.552L291.265 85.866V86.944L288.815 86.636L288.801 86.706C289.837 87.028 290.481 87.84 290.481 88.918C290.481 90.332 289.417 91.34 287.625 91.34ZM285.259 94.616C285.259 95.344 285.903 95.694 287.639 95.694C289.179 95.694 290.033 95.26 290.033 94.56C290.033 94.042 289.599 93.734 288.871 93.734H286.505C286.323 93.734 286.155 93.72 286.001 93.706C285.525 93.902 285.259 94.266 285.259 94.616ZM285.889 88.904C285.889 89.8 286.547 90.36 287.625 90.36C288.703 90.36 289.361 89.8 289.361 88.904C289.361 88.022 288.703 87.462 287.625 87.462C286.547 87.462 285.889 88.022 285.889 88.904ZM295.738 94.224C293.652 94.224 292.154 92.964 292.154 90.36C292.154 87.938 293.61 86.552 295.71 86.552C297.67 86.552 299.126 88.008 299.126 90.052C299.126 90.22 299.112 90.388 299.098 90.57H293.274C293.302 92.32 294.338 93.244 295.738 93.244C296.942 93.244 297.712 92.46 297.922 91.466H299.07C298.86 93.118 297.53 94.224 295.738 94.224ZM293.274 89.786H297.978C297.894 88.428 297.054 87.532 295.668 87.532C294.366 87.532 293.372 88.302 293.274 89.786ZM300.564 90.556V89.548H304.764V90.556H300.564ZM306.558 94V84.2H307.678V88.596H307.734C308.196 87.28 309.148 86.552 310.394 86.552C312.354 86.552 313.656 88.092 313.656 90.402C313.656 92.712 312.354 94.252 310.394 94.252C309.148 94.252 308.196 93.524 307.734 92.208H307.678L307.622 94H306.558ZM307.678 90.766C307.678 92.11 308.644 93.244 310.1 93.244C311.556 93.244 312.522 92.11 312.522 90.402C312.522 88.694 311.556 87.56 310.1 87.56C308.644 87.56 307.678 88.694 307.678 90.038V90.766ZM317.586 94.224C316.102 94.224 315.094 93.454 315.094 92.222C315.094 90.878 316.032 90.136 317.712 90.136H318.566C319.868 90.136 320.61 89.996 320.61 89.016C320.61 88.386 320.12 87.532 318.51 87.532C317.306 87.532 316.438 88.162 316.27 89.268H315.122C315.276 87.602 316.592 86.552 318.524 86.552C320.54 86.552 321.73 87.476 321.73 89.044V94H320.666L320.61 92.012H320.554C320.274 93.37 319.126 94.224 317.586 94.224ZM316.284 92.068C316.284 92.81 316.746 93.272 317.838 93.272C319.546 93.272 320.61 91.956 320.61 90.794V89.982H320.554C320.456 90.612 319.854 90.892 318.566 90.892H317.684C316.788 90.892 316.284 91.312 316.284 92.068ZM326.613 94.224C324.583 94.224 323.379 93.3 323.281 91.704H324.429C324.527 92.698 325.297 93.244 326.613 93.244C327.747 93.244 328.461 92.796 328.461 92.068C328.461 91.34 327.761 91.074 326.879 90.92L325.997 90.766C324.737 90.542 323.463 90.178 323.463 88.708C323.463 87.378 324.527 86.552 326.347 86.552C328.195 86.552 329.399 87.518 329.399 89.072H328.251C328.251 88.12 327.495 87.532 326.347 87.532C325.227 87.532 324.583 87.966 324.583 88.666C324.583 89.38 325.325 89.604 326.249 89.772L327.061 89.926C328.335 90.164 329.609 90.542 329.609 92.026C329.609 93.37 328.447 94.224 326.613 94.224ZM334.498 94.224C332.412 94.224 330.914 92.964 330.914 90.36C330.914 87.938 332.37 86.552 334.47 86.552C336.43 86.552 337.886 88.008 337.886 90.052C337.886 90.22 337.872 90.388 337.858 90.57H332.034C332.062 92.32 333.098 93.244 334.498 93.244C335.702 93.244 336.472 92.46 336.682 91.466H337.83C337.62 93.118 336.29 94.224 334.498 94.224ZM332.034 89.786H336.738C336.654 88.428 335.814 87.532 334.428 87.532C333.126 87.532 332.132 88.302 332.034 89.786Z" fill="white"/>
<circle cx="282" cy="138" r="29.5" fill="#111111" stroke="#D9D9D9" stroke-width="3" stroke-dasharray="2 2"/>
<path d="M289 126L284 131V142L289 137.5V126ZM271 131V145.65C271 145.9 271.25 146.15 271.5 146.15C271.6 146.15 271.65 146.1 271.75 146.1C273.1 145.45 275.05 145 276.5 145C278.45 145 280.55 145.4 282 146.5V131C280.55 129.9 278.45 129.5 276.5 129.5C274.55 129.5 272.45 129.9 271 131ZM293 144.5V131C292.4 130.55 291.75 130.25 291 130V143.5C289.9 143.15 288.7 143 287.5 143C285.8 143 283.35 143.65 282 144.5V146.5C283.35 145.65 285.8 145 287.5 145C289.15 145 290.85 145.3 292.25 146.05C292.35 146.1 292.4 146.1 292.5 146.1C292.75 146.1 293 145.85 293 145.6V144.5Z" fill="white"/>
<path opacity="0.8" d="M425.306 71.234V65.2H426.468V71.234C426.468 73.026 427.378 74.16 429.268 74.16C431.158 74.16 432.068 73.026 432.068 71.234V65.2H433.23V71.234C433.23 73.684 431.83 75.224 429.268 75.224C426.706 75.224 425.306 73.684 425.306 71.234ZM435.233 75V67.776H436.297L436.367 69.554H436.451C436.843 68.266 437.753 67.552 439.013 67.552C440.581 67.552 441.617 68.616 441.617 70.198V75H440.497V70.464C440.497 69.246 439.881 68.588 438.593 68.588C437.277 68.588 436.367 69.666 436.367 71.276V75H435.233ZM446.496 75.224C444.466 75.224 443.262 74.3 443.164 72.704H444.312C444.41 73.698 445.18 74.244 446.496 74.244C447.63 74.244 448.344 73.796 448.344 73.068C448.344 72.34 447.644 72.074 446.762 71.92L445.88 71.766C444.62 71.542 443.346 71.178 443.346 69.708C443.346 68.378 444.41 67.552 446.23 67.552C448.078 67.552 449.282 68.518 449.282 70.072H448.134C448.134 69.12 447.378 68.532 446.23 68.532C445.11 68.532 444.466 68.966 444.466 69.666C444.466 70.38 445.208 70.604 446.132 70.772L446.944 70.926C448.218 71.164 449.492 71.542 449.492 73.026C449.492 74.37 448.33 75.224 446.496 75.224ZM450.244 68.616V67.776H451.532V65.886H452.652V67.776H454.64V68.616H452.652V73.068C452.652 73.852 452.946 74.16 453.688 74.16C453.968 74.16 454.276 74.118 454.64 74.034V74.93C454.304 75.014 453.94 75.07 453.59 75.07C452.12 75.07 451.532 74.58 451.532 73.166V68.616H450.244ZM456.22 75V67.776H457.298L457.34 70.002H457.396C457.718 68.462 458.614 67.664 460.406 67.664V68.672C459.398 68.714 458.684 68.966 458.194 69.456C457.578 70.072 457.34 71.066 457.34 72.424V75H456.22ZM464.251 75.224C462.683 75.224 461.647 74.16 461.647 72.578V67.776H462.767V72.214C462.767 73.404 463.537 74.188 464.699 74.188C466.015 74.188 466.897 73.11 466.897 71.5V67.776H468.031V75H466.967L466.897 73.222H466.813C466.421 74.51 465.511 75.224 464.251 75.224ZM473.001 75.224C470.887 75.224 469.473 73.67 469.473 71.332C469.473 69.064 470.887 67.552 473.001 67.552C474.807 67.552 476.109 68.63 476.347 70.268H475.185C475.017 69.232 474.205 68.56 473.001 68.56C471.559 68.56 470.621 69.652 470.621 71.304C470.621 72.998 471.559 74.216 473.001 74.216C474.233 74.216 475.059 73.446 475.199 72.368H476.361C476.193 74.09 474.863 75.224 473.001 75.224ZM477.041 68.616V67.776H478.329V65.886H479.449V67.776H481.437V68.616H479.449V73.068C479.449 73.852 479.743 74.16 480.485 74.16C480.765 74.16 481.073 74.118 481.437 74.034V74.93C481.101 75.014 480.737 75.07 480.387 75.07C478.917 75.07 478.329 74.58 478.329 73.166V68.616H477.041ZM485.62 75.224C484.052 75.224 483.016 74.16 483.016 72.578V67.776H484.136V72.214C484.136 73.404 484.906 74.188 486.068 74.188C487.384 74.188 488.266 73.11 488.266 71.5V67.776H489.4V75H488.336L488.266 73.222H488.182C487.79 74.51 486.88 75.224 485.62 75.224ZM491.466 75V67.776H492.544L492.586 70.002H492.642C492.964 68.462 493.86 67.664 495.652 67.664V68.672C494.644 68.714 493.93 68.966 493.44 69.456C492.824 70.072 492.586 71.066 492.586 72.424V75H491.466ZM499.772 75.224C497.686 75.224 496.188 73.964 496.188 71.36C496.188 68.938 497.644 67.552 499.744 67.552C501.704 67.552 503.16 69.008 503.16 71.052C503.16 71.22 503.146 71.388 503.132 71.57H497.308C497.336 73.32 498.372 74.244 499.772 74.244C500.976 74.244 501.746 73.46 501.956 72.466H503.104C502.894 74.118 501.564 75.224 499.772 75.224ZM497.308 70.786H502.012C501.928 69.428 501.088 68.532 499.702 68.532C498.4 68.532 497.406 69.302 497.308 70.786ZM504.528 71.402C504.528 69.092 505.83 67.552 507.79 67.552C509.036 67.552 509.988 68.28 510.45 69.596H510.506V65.2H511.626V75H510.562L510.506 73.208H510.45C509.988 74.524 509.036 75.252 507.79 75.252C505.83 75.252 504.528 73.712 504.528 71.402ZM505.662 71.402C505.662 73.11 506.628 74.244 508.084 74.244C509.54 74.244 510.506 73.11 510.506 71.766V71.038C510.506 69.694 509.54 68.56 508.084 68.56C506.628 68.56 505.662 69.694 505.662 71.402ZM457.275 92.936C459.641 92.936 460.943 91.69 460.943 89.1C460.943 86.51 459.627 85.264 457.275 85.264H455.217V92.936H457.275ZM454.041 94V84.2H457.275C460.285 84.2 462.147 85.894 462.147 89.1C462.147 92.376 460.257 94 457.275 94H454.041ZM465.804 94.224C464.32 94.224 463.312 93.454 463.312 92.222C463.312 90.878 464.25 90.136 465.93 90.136H466.784C468.086 90.136 468.828 89.996 468.828 89.016C468.828 88.386 468.338 87.532 466.728 87.532C465.524 87.532 464.656 88.162 464.488 89.268H463.34C463.494 87.602 464.81 86.552 466.742 86.552C468.758 86.552 469.948 87.476 469.948 89.044V94H468.884L468.828 92.012H468.772C468.492 93.37 467.344 94.224 465.804 94.224ZM464.502 92.068C464.502 92.81 464.964 93.272 466.056 93.272C467.764 93.272 468.828 91.956 468.828 90.794V89.982H468.772C468.674 90.612 468.072 90.892 466.784 90.892H465.902C465.006 90.892 464.502 91.312 464.502 92.068ZM471.114 87.616V86.776H472.402V84.886H473.522V86.776H475.51V87.616H473.522V92.068C473.522 92.852 473.816 93.16 474.558 93.16C474.838 93.16 475.146 93.118 475.51 93.034V93.93C475.174 94.014 474.81 94.07 474.46 94.07C472.99 94.07 472.402 93.58 472.402 92.166V87.616H471.114ZM478.888 94.224C477.404 94.224 476.396 93.454 476.396 92.222C476.396 90.878 477.334 90.136 479.014 90.136H479.868C481.17 90.136 481.912 89.996 481.912 89.016C481.912 88.386 481.422 87.532 479.812 87.532C478.608 87.532 477.74 88.162 477.572 89.268H476.424C476.578 87.602 477.894 86.552 479.826 86.552C481.842 86.552 483.032 87.476 483.032 89.044V94H481.968L481.912 92.012H481.856C481.576 93.37 480.428 94.224 478.888 94.224ZM477.586 92.068C477.586 92.81 478.048 93.272 479.14 93.272C480.848 93.272 481.912 91.956 481.912 90.794V89.982H481.856C481.758 90.612 481.156 90.892 479.868 90.892H478.986C478.09 90.892 477.586 91.312 477.586 92.068Z" fill="white"/>
<circle cx="468" cy="137" r="29.5" fill="#111111" stroke="#D9D9D9" stroke-width="3" stroke-dasharray="2 2"/>
<path d="M458 145H478V141H458V145ZM460 142H462V144H460V142ZM458 129V133H478V129H458ZM462 132H460V130H462V132ZM458 139H478V135H458V139ZM460 136H462V138H460V136Z" fill="white"/>
<path style="mix-blend-mode:screen" d="M283.5 358C336.795 358 380 317.706 380 268C380 218.294 336.795 178 283.5 178C230.205 178 187 218.294 187 268C187 317.706 230.205 358 283.5 358Z" fill="url(#paint0_radial_4194_4587)"/>
<path style="mix-blend-mode:screen" d="M283.5 418C327.959 418 364 384.421 364 343C364 301.579 327.959 268 283.5 268C239.041 268 203 301.579 203 343C203 384.421 239.041 418 283.5 418Z" fill="url(#paint1_radial_4194_4587)"/>
<path style="mix-blend-mode:screen" d="M93.5 472C132.988 472 165 442.003 165 405C165 367.997 132.988 338 93.5 338C54.0116 338 22 367.997 22 405C22 442.003 54.0116 472 93.5 472Z" fill="url(#paint2_radial_4194_4587)"/>
<path d="M265 269V242.5L92 195.5V167" stroke="#333333" stroke-width="4" stroke-dasharray="2 2"/>
<path d="M298 269V242.5L470 195.5V167" stroke="#333333" stroke-width="4" stroke-dasharray="2 2"/>
<path d="M282 269V171" stroke="#333333" stroke-width="4" stroke-dasharray="2 2"/>
<path style="mix-blend-mode:screen" d="M282.5 469C321.988 469 354 439.003 354 402C354 364.997 321.988 335 282.5 335C243.012 335 211 364.997 211 402C211 439.003 243.012 469 282.5 469Z" fill="url(#paint3_radial_4194_4587)"/>
<path style="mix-blend-mode:screen" d="M469.5 469C508.988 469 541 439.003 541 402C541 364.997 508.988 335 469.5 335C430.012 335 398 364.997 398 402C398 439.003 430.012 469 469.5 469Z" fill="url(#paint4_radial_4194_4587)"/>
<rect x="201" y="271" width="163" height="73" fill="url(#paint5_linear_4194_4587)"/>
<rect x="201" y="271" width="163" height="73" stroke="url(#paint6_linear_4194_4587)" stroke-width="4"/>
<path d="M242.5 297.52C236.99 297.52 232.52 301.99 232.52 307.5C232.52 313.01 236.99 317.48 242.5 317.48C248.01 317.48 252.48 313.01 252.48 307.5C252.48 301.99 248.01 297.52 242.5 297.52ZM241.98 315.5V309.24H238.5L243.5 299.5V305.76H246.85L241.98 315.5Z" fill="#D4F479"/>
<path d="M273.555 315.352C269.507 315.352 266.581 312.338 266.581 307.3C266.581 302.46 269.463 299.248 274.435 299.248C278.615 299.248 281.255 301.47 281.739 304.902H278.263C277.911 303.12 276.613 301.91 274.457 301.91C271.399 301.932 270.057 304.198 270.057 307.3C270.057 310.402 271.531 312.69 274.787 312.69C277.119 312.69 278.769 311.216 278.901 309.412L278.923 309.192H274.523V306.816H282.069V315H279.231L279.077 311.788H278.901C278.219 313.526 276.789 315.352 273.555 315.352ZM290.442 315.352C286.724 315.352 284.37 313.218 284.37 309.28C284.37 305.65 286.658 303.296 290.244 303.296C293.588 303.296 296.008 305.672 296.008 309.016C296.008 309.324 295.986 309.632 295.964 309.962H287.34C287.406 311.876 288.66 312.998 290.442 312.998C291.872 312.998 292.906 312.162 293.17 311.062H295.92C295.546 313.966 292.84 315.352 290.442 315.352ZM287.34 308.268H292.95C292.862 306.684 291.85 305.65 290.244 305.65C288.616 305.65 287.45 306.596 287.34 308.268ZM298.367 315V303.648H301.403L301.491 306.354H301.623C302.239 304.396 303.735 303.296 305.803 303.296C308.069 303.296 309.983 304.858 309.983 307.674V315H306.859V308.554C306.859 306.728 306.001 305.76 304.285 305.76C302.569 305.76 301.491 306.992 301.491 309.06V315H298.367ZM315.226 315H311.772L317.558 299.6H321.716L327.678 315H324.114L322.838 311.37H316.48L315.226 315ZM317.382 308.774H321.914L321.012 306.2C320.55 304.924 320.132 303.626 319.714 302.328H319.56C319.142 303.648 318.702 304.968 318.24 306.288L317.382 308.774ZM329.395 299.6H332.761V315H329.395V299.6Z" fill="white"/>
<path opacity="0.8" d="M85.7484 491.224C83.0044 491.224 81.1284 489.222 81.1284 486.058C81.1284 482.894 83.0044 480.976 85.7484 480.976C88.0584 480.976 89.5844 482.348 90.0324 484.238H88.7724C88.3804 483.006 87.3444 482.068 85.7484 482.068C83.7184 482.068 82.3324 483.566 82.3324 486.058C82.3324 488.55 83.7184 490.132 85.7484 490.132C87.5544 490.132 88.6324 488.872 88.8844 487.402H90.1164C89.8364 489.572 88.2684 491.224 85.7484 491.224ZM91.787 491V481.2H92.921V485.554H93.005C93.397 484.266 94.307 483.552 95.567 483.552C97.135 483.552 98.171 484.616 98.171 486.198V491H97.051V486.464C97.051 485.246 96.435 484.588 95.147 484.588C93.831 484.588 92.921 485.666 92.921 487.276V491H91.787ZM102.308 491.224C100.824 491.224 99.8162 490.454 99.8162 489.222C99.8162 487.878 100.754 487.136 102.434 487.136H103.288C104.59 487.136 105.332 486.996 105.332 486.016C105.332 485.386 104.842 484.532 103.232 484.532C102.028 484.532 101.16 485.162 100.992 486.268H99.8442C99.9982 484.602 101.314 483.552 103.246 483.552C105.262 483.552 106.452 484.476 106.452 486.044V491H105.388L105.332 489.012H105.276C104.996 490.37 103.848 491.224 102.308 491.224ZM101.006 489.068C101.006 489.81 101.468 490.272 102.56 490.272C104.268 490.272 105.332 488.956 105.332 487.794V486.982H105.276C105.178 487.612 104.576 487.892 103.288 487.892H102.406C101.51 487.892 101.006 488.312 101.006 489.068ZM107.618 484.616V483.776H108.906V481.886H110.026V483.776H112.014V484.616H110.026V489.068C110.026 489.852 110.32 490.16 111.062 490.16C111.342 490.16 111.65 490.118 112.014 490.034V490.93C111.678 491.014 111.314 491.07 110.964 491.07C109.494 491.07 108.906 490.58 108.906 489.166V484.616H107.618ZM60.2818 510V500.2H64.6078C66.5118 500.2 67.7018 501.18 67.7018 502.664C67.7018 504.036 66.7778 505.016 65.6438 505.142V505.226C66.6518 505.31 67.0998 505.856 67.3378 507.06L67.9258 510H66.7218L66.2318 507.382C66.0358 506.304 65.6578 506.038 64.4258 506.038H61.4578V510H60.2818ZM61.4578 504.974H64.3978C65.6858 504.974 66.5118 504.204 66.5118 503C66.5118 501.88 65.7698 501.264 64.4258 501.264H61.4578V504.974ZM72.6743 510.224C70.5883 510.224 69.0903 508.964 69.0903 506.36C69.0903 503.938 70.5463 502.552 72.6463 502.552C74.6063 502.552 76.0623 504.008 76.0623 506.052C76.0623 506.22 76.0483 506.388 76.0343 506.57H70.2103C70.2383 508.32 71.2743 509.244 72.6743 509.244C73.8783 509.244 74.6483 508.46 74.8583 507.466H76.0063C75.7963 509.118 74.4663 510.224 72.6743 510.224ZM70.2103 505.786H74.9143C74.8303 504.428 73.9903 503.532 72.6043 503.532C71.3023 503.532 70.3083 504.302 70.2103 505.786ZM80.7992 510.224C78.7692 510.224 77.5652 509.3 77.4672 507.704H78.6152C78.7132 508.698 79.4832 509.244 80.7992 509.244C81.9332 509.244 82.6472 508.796 82.6472 508.068C82.6472 507.34 81.9472 507.074 81.0652 506.92L80.1832 506.766C78.9232 506.542 77.6492 506.178 77.6492 504.708C77.6492 503.378 78.7132 502.552 80.5332 502.552C82.3812 502.552 83.5852 503.518 83.5852 505.072H82.4372C82.4372 504.12 81.6812 503.532 80.5332 503.532C79.4132 503.532 78.7692 503.966 78.7692 504.666C78.7692 505.38 79.5112 505.604 80.4352 505.772L81.2472 505.926C82.5212 506.164 83.7952 506.542 83.7952 508.026C83.7952 509.37 82.6332 510.224 80.7992 510.224ZM85.3133 512.576V502.776H86.3773L86.4333 504.596H86.4893C86.9513 503.28 87.9033 502.552 89.1493 502.552C91.1093 502.552 92.4113 504.092 92.4113 506.402C92.4113 508.712 91.1093 510.252 89.1493 510.252C87.9033 510.252 86.9513 509.524 86.4893 508.208H86.4333V512.576H85.3133ZM86.4333 506.766C86.4333 508.11 87.3993 509.244 88.8553 509.244C90.3113 509.244 91.2773 508.11 91.2773 506.402C91.2773 504.694 90.3113 503.56 88.8553 503.56C87.3993 503.56 86.4333 504.694 86.4333 506.038V506.766ZM97.5887 510.224C95.6147 510.224 93.8227 508.74 93.8227 506.36C93.8227 504.036 95.6147 502.552 97.5887 502.552C99.5627 502.552 101.355 504.036 101.355 506.36C101.355 508.74 99.5627 510.224 97.5887 510.224ZM94.9707 506.36C94.9707 508.138 96.0487 509.216 97.5887 509.216C99.1287 509.216 100.207 508.138 100.207 506.36C100.207 504.624 99.1287 503.56 97.5887 503.56C96.0487 503.56 94.9707 504.624 94.9707 506.36ZM103.073 510V502.776H104.137L104.207 504.554H104.291C104.683 503.266 105.593 502.552 106.853 502.552C108.421 502.552 109.457 503.616 109.457 505.198V510H108.337V505.464C108.337 504.246 107.721 503.588 106.433 503.588C105.117 503.588 104.207 504.666 104.207 506.276V510H103.073ZM114.336 510.224C112.306 510.224 111.102 509.3 111.004 507.704H112.152C112.25 508.698 113.02 509.244 114.336 509.244C115.47 509.244 116.184 508.796 116.184 508.068C116.184 507.34 115.484 507.074 114.602 506.92L113.72 506.766C112.46 506.542 111.186 506.178 111.186 504.708C111.186 503.378 112.25 502.552 114.07 502.552C115.918 502.552 117.122 503.518 117.122 505.072H115.974C115.974 504.12 115.218 503.532 114.07 503.532C112.95 503.532 112.306 503.966 112.306 504.666C112.306 505.38 113.048 505.604 113.972 505.772L114.784 505.926C116.058 506.164 117.332 506.542 117.332 508.026C117.332 509.37 116.17 510.224 114.336 510.224ZM122.221 510.224C120.135 510.224 118.637 508.964 118.637 506.36C118.637 503.938 120.093 502.552 122.193 502.552C124.153 502.552 125.609 504.008 125.609 506.052C125.609 506.22 125.595 506.388 125.581 506.57H119.757C119.785 508.32 120.821 509.244 122.221 509.244C123.425 509.244 124.195 508.46 124.405 507.466H125.553C125.343 509.118 124.013 510.224 122.221 510.224ZM119.757 505.786H124.461C124.377 504.428 123.537 503.532 122.151 503.532C120.849 503.532 119.855 504.302 119.757 505.786ZM130.346 510.224C128.316 510.224 127.112 509.3 127.014 507.704H128.162C128.26 508.698 129.03 509.244 130.346 509.244C131.48 509.244 132.194 508.796 132.194 508.068C132.194 507.34 131.494 507.074 130.612 506.92L129.73 506.766C128.47 506.542 127.196 506.178 127.196 504.708C127.196 503.378 128.26 502.552 130.08 502.552C131.928 502.552 133.132 503.518 133.132 505.072H131.984C131.984 504.12 131.228 503.532 130.08 503.532C128.96 503.532 128.316 503.966 128.316 504.666C128.316 505.38 129.058 505.604 129.982 505.772L130.794 505.926C132.068 506.164 133.342 506.542 133.342 508.026C133.342 509.37 132.18 510.224 130.346 510.224Z" fill="white"/>
<circle cx="96" cy="438" r="29.5" fill="#111111" stroke="#038E43" stroke-width="3"/>
<path d="M104 428H88C86.9 428 86 428.9 86 430V448L90 444H104C105.1 444 106 443.1 106 442V430C106 428.9 105.1 428 104 428ZM104 442H89.17L88 443.17V430H104V442ZM91 435H93V437H91V435ZM99 435H101V437H99V435ZM95 435H97V437H95V435Z" fill="white"/>
<path opacity="0.8" d="M257.846 491H256.614L260.618 481.2H262.004L266.092 491H264.86L263.698 488.172H258.98L257.846 491ZM259.414 487.108H263.264L262.466 485.162C262.088 484.238 261.724 483.3 261.36 482.376H261.276C260.926 483.328 260.548 484.266 260.17 485.218L259.414 487.108ZM269.787 491.224C268.219 491.224 267.183 490.16 267.183 488.578V483.776H268.303V488.214C268.303 489.404 269.073 490.188 270.235 490.188C271.551 490.188 272.433 489.11 272.433 487.5V483.776H273.567V491H272.503L272.433 489.222H272.349C271.957 490.51 271.047 491.224 269.787 491.224ZM275.009 487.402C275.009 485.092 276.311 483.552 278.271 483.552C279.517 483.552 280.469 484.28 280.931 485.596H280.987V481.2H282.107V491H281.043L280.987 489.208H280.931C280.469 490.524 279.517 491.252 278.271 491.252C276.311 491.252 275.009 489.712 275.009 487.402ZM276.143 487.402C276.143 489.11 277.109 490.244 278.565 490.244C280.021 490.244 280.987 489.11 280.987 487.766V487.038C280.987 485.694 280.021 484.56 278.565 484.56C277.109 484.56 276.143 485.694 276.143 487.402ZM284.346 483.776H285.466V491H284.346V483.776ZM284.15 481.83C284.15 481.41 284.486 481.074 284.906 481.074C285.326 481.074 285.662 481.41 285.662 481.83C285.662 482.25 285.326 482.586 284.906 482.586C284.486 482.586 284.15 482.25 284.15 481.83ZM290.861 491.224C288.887 491.224 287.095 489.74 287.095 487.36C287.095 485.036 288.887 483.552 290.861 483.552C292.835 483.552 294.627 485.036 294.627 487.36C294.627 489.74 292.835 491.224 290.861 491.224ZM288.243 487.36C288.243 489.138 289.321 490.216 290.861 490.216C292.401 490.216 293.479 489.138 293.479 487.36C293.479 485.624 292.401 484.56 290.861 484.56C289.321 484.56 288.243 485.624 288.243 487.36ZM302.191 491.224C300.427 491.224 299.181 490.286 299.181 488.69C299.181 487.388 300.119 486.352 301.659 485.96L301.673 485.89C300.553 484.742 300.175 484.042 300.175 483.258C300.175 481.942 301.211 480.92 302.765 480.92C304.249 480.92 305.341 481.858 305.341 483.216C305.341 484.196 304.697 485.246 303.017 485.652L303.003 485.722L305.117 488.144C305.369 487.57 305.509 486.898 305.509 486.184H306.643C306.615 487.276 306.349 488.256 305.901 489.054L307.595 491H306.139L305.229 489.964C304.473 490.748 303.437 491.224 302.191 491.224ZM300.343 488.41C300.343 489.348 300.973 490.16 302.261 490.16C303.185 490.16 303.941 489.768 304.501 489.124L301.967 486.212C300.833 486.702 300.343 487.598 300.343 488.41ZM301.351 483.258C301.351 483.804 301.589 484.28 302.737 485.428C303.773 484.798 304.165 484.084 304.165 483.258C304.165 482.558 303.619 481.928 302.751 481.928C301.813 481.928 301.351 482.572 301.351 483.258ZM266.812 510L263.088 500.2H264.32L265.944 504.582C266.448 505.94 266.966 507.312 267.47 508.684H267.554C268.086 507.312 268.604 505.94 269.122 504.554L270.774 500.2H272.006L268.198 510H266.812ZM273.196 502.776H274.316V510H273.196V502.776ZM273 500.83C273 500.41 273.336 500.074 273.756 500.074C274.176 500.074 274.512 500.41 274.512 500.83C274.512 501.25 274.176 501.586 273.756 501.586C273.336 501.586 273 501.25 273 500.83ZM275.946 506.402C275.946 504.092 277.248 502.552 279.208 502.552C280.454 502.552 281.406 503.28 281.868 504.596H281.924V500.2H283.044V510H281.98L281.924 508.208H281.868C281.406 509.524 280.454 510.252 279.208 510.252C277.248 510.252 275.946 508.712 275.946 506.402ZM277.08 506.402C277.08 508.11 278.046 509.244 279.502 509.244C280.958 509.244 281.924 508.11 281.924 506.766V506.038C281.924 504.694 280.958 503.56 279.502 503.56C278.046 503.56 277.08 504.694 277.08 506.402ZM288.348 510.224C286.262 510.224 284.764 508.964 284.764 506.36C284.764 503.938 286.22 502.552 288.32 502.552C290.28 502.552 291.736 504.008 291.736 506.052C291.736 506.22 291.722 506.388 291.708 506.57H285.884C285.912 508.32 286.948 509.244 288.348 509.244C289.552 509.244 290.322 508.46 290.532 507.466H291.68C291.47 509.118 290.14 510.224 288.348 510.224ZM285.884 505.786H290.588C290.504 504.428 289.664 503.532 288.278 503.532C286.976 503.532 285.982 504.302 285.884 505.786ZM296.87 510.224C294.896 510.224 293.104 508.74 293.104 506.36C293.104 504.036 294.896 502.552 296.87 502.552C298.844 502.552 300.636 504.036 300.636 506.36C300.636 508.74 298.844 510.224 296.87 510.224ZM294.252 506.36C294.252 508.138 295.33 509.216 296.87 509.216C298.41 509.216 299.488 508.138 299.488 506.36C299.488 504.624 298.41 503.56 296.87 503.56C295.33 503.56 294.252 504.624 294.252 506.36Z" fill="white"/>
<circle cx="282" cy="438" r="29.5" fill="#111111" stroke="#038E43" stroke-width="3"/>
<path d="M274 433H290V435H274V433ZM276 429H288V431H276V429ZM290 437H274C272.9 437 272 437.9 272 439V447C272 448.1 272.9 449 274 449H290C291.1 449 292 448.1 292 447V439C292 437.9 291.1 437 290 437ZM290 447H274V439H290V447ZM280 439.73V446.26L286 443L280 439.73Z" fill="white"/>
<path opacity="0.8" d="M439.651 489.936C442.017 489.936 443.319 488.69 443.319 486.1C443.319 483.51 442.003 482.264 439.651 482.264H437.593V489.936H439.651ZM436.417 491V481.2H439.651C442.661 481.2 444.523 482.894 444.523 486.1C444.523 489.376 442.633 491 439.651 491H436.417ZM449.616 491.224C447.53 491.224 446.032 489.964 446.032 487.36C446.032 484.938 447.488 483.552 449.588 483.552C451.548 483.552 453.004 485.008 453.004 487.052C453.004 487.22 452.99 487.388 452.976 487.57H447.152C447.18 489.32 448.216 490.244 449.616 490.244C450.82 490.244 451.59 489.46 451.8 488.466H452.948C452.738 490.118 451.408 491.224 449.616 491.224ZM447.152 486.786H451.856C451.772 485.428 450.932 484.532 449.546 484.532C448.244 484.532 447.25 485.302 447.152 486.786ZM457.9 491.224C455.786 491.224 454.372 489.67 454.372 487.332C454.372 485.064 455.786 483.552 457.9 483.552C459.706 483.552 461.008 484.63 461.246 486.268H460.084C459.916 485.232 459.104 484.56 457.9 484.56C456.458 484.56 455.52 485.652 455.52 487.304C455.52 488.998 456.458 490.216 457.9 490.216C459.132 490.216 459.958 489.446 460.098 488.368H461.26C461.092 490.09 459.762 491.224 457.9 491.224ZM463.011 483.776H464.131V491H463.011V483.776ZM462.815 481.83C462.815 481.41 463.151 481.074 463.571 481.074C463.991 481.074 464.327 481.41 464.327 481.83C464.327 482.25 463.991 482.586 463.571 482.586C463.151 482.586 462.815 482.25 462.815 481.83ZM469.266 491.224C467.236 491.224 466.032 490.3 465.934 488.704H467.082C467.18 489.698 467.95 490.244 469.266 490.244C470.4 490.244 471.114 489.796 471.114 489.068C471.114 488.34 470.414 488.074 469.532 487.92L468.65 487.766C467.39 487.542 466.116 487.178 466.116 485.708C466.116 484.378 467.18 483.552 469 483.552C470.848 483.552 472.052 484.518 472.052 486.072H470.904C470.904 485.12 470.148 484.532 469 484.532C467.88 484.532 467.236 484.966 467.236 485.666C467.236 486.38 467.978 486.604 468.902 486.772L469.714 486.926C470.988 487.164 472.262 487.542 472.262 489.026C472.262 490.37 471.1 491.224 469.266 491.224ZM473.948 483.776H475.068V491H473.948V483.776ZM473.752 481.83C473.752 481.41 474.088 481.074 474.508 481.074C474.928 481.074 475.264 481.41 475.264 481.83C475.264 482.25 474.928 482.586 474.508 482.586C474.088 482.586 473.752 482.25 473.752 481.83ZM480.464 491.224C478.49 491.224 476.698 489.74 476.698 487.36C476.698 485.036 478.49 483.552 480.464 483.552C482.438 483.552 484.23 485.036 484.23 487.36C484.23 489.74 482.438 491.224 480.464 491.224ZM477.846 487.36C477.846 489.138 478.924 490.216 480.464 490.216C482.004 490.216 483.082 489.138 483.082 487.36C483.082 485.624 482.004 484.56 480.464 484.56C478.924 484.56 477.846 485.624 477.846 487.36ZM485.948 491V483.776H487.012L487.082 485.554H487.166C487.558 484.266 488.468 483.552 489.728 483.552C491.296 483.552 492.332 484.616 492.332 486.198V491H491.212V486.464C491.212 485.246 490.596 484.588 489.308 484.588C487.992 484.588 487.082 485.666 487.082 487.276V491H485.948ZM497.211 491.224C495.181 491.224 493.977 490.3 493.879 488.704H495.027C495.125 489.698 495.895 490.244 497.211 490.244C498.345 490.244 499.059 489.796 499.059 489.068C499.059 488.34 498.359 488.074 497.477 487.92L496.595 487.766C495.335 487.542 494.061 487.178 494.061 485.708C494.061 484.378 495.125 483.552 496.945 483.552C498.793 483.552 499.997 484.518 499.997 486.072H498.849C498.849 485.12 498.093 484.532 496.945 484.532C495.825 484.532 495.181 484.966 495.181 485.666C495.181 486.38 495.923 486.604 496.847 486.772L497.659 486.926C498.933 487.164 500.207 487.542 500.207 489.026C500.207 490.37 499.045 491.224 497.211 491.224Z" fill="white"/>
<circle cx="468" cy="438" r="29.5" fill="#111111" stroke="#038E43" stroke-width="3"/>
<path d="M465.78 439.16L464.36 440.58C463.68 439.89 463.02 439 462.57 437.64L464.51 437.15C464.83 438.04 465.28 438.65 465.78 439.16ZM467 434L463 430L459 434H462.02C462.04 434.81 462.1 435.54 462.21 436.17L464.15 435.68C464.08 435.2 464.03 434.63 464.02 434H467ZM477 434L473 430L469 434H471.99C471.89 437.68 470.71 438.75 469.45 439.88C468.95 440.32 468.44 440.8 468 441.43C467.66 440.94 467.27 440.55 466.87 440.19L465.46 441.6C466.39 442.45 467 443.14 467 445V450H469V445C469 442.98 469.71 442.34 470.79 441.37C472.17 440.13 473.87 438.59 473.99 434H477Z" fill="white"/>
<defs>
<radialGradient id="paint0_radial_4194_4587" cx="0" cy="0" r="1" gradientUnits="userSpaceOnUse" gradientTransform="translate(281.109 273.52) scale(96.7345 90.6875)">
<stop stop-color="#038E43" stop-opacity="0.97"/>
<stop offset="0.08" stop-color="#038E43" stop-opacity="0.55"/>
<stop offset="0.17" stop-color="#038E43" stop-opacity="0.36"/>
<stop offset="0.26" stop-color="#038E43" stop-opacity="0.19"/>
<stop offset="0.35" stop-color="#038E43" stop-opacity="0.09"/>
<stop offset="0.45" stop-color="#038E43" stop-opacity="0.0361"/>
<stop offset="0.55" stop-color="#038E43" stop-opacity="0.0121"/>
<stop offset="0.67" stop-color="#038E43" stop-opacity="0.01"/>
<stop offset="0.8" stop-color="#038E43" stop-opacity="0.01"/>
<stop offset="1" stop-color="#038E43" stop-opacity="0"/>
</radialGradient>
<radialGradient id="paint1_radial_4194_4587" cx="0" cy="0" r="1" gradientUnits="userSpaceOnUse" gradientTransform="translate(281.505 347.6) scale(80.6956 75.5729)">
<stop stop-color="#038E43" stop-opacity="0.97"/>
<stop offset="0.08" stop-color="#038E43" stop-opacity="0.55"/>
<stop offset="0.17" stop-color="#038E43" stop-opacity="0.36"/>
<stop offset="0.26" stop-color="#038E43" stop-opacity="0.19"/>
<stop offset="0.35" stop-color="#038E43" stop-opacity="0.09"/>
<stop offset="0.45" stop-color="#038E43" stop-opacity="0.0361"/>
<stop offset="0.55" stop-color="#038E43" stop-opacity="0.0121"/>
<stop offset="0.67" stop-color="#038E43" stop-opacity="0.01"/>
<stop offset="0.8" stop-color="#038E43" stop-opacity="0.01"/>
<stop offset="1" stop-color="#038E43" stop-opacity="0"/>
</radialGradient>
<radialGradient id="paint2_radial_4194_4587" cx="0" cy="0" r="1" gradientUnits="userSpaceOnUse" gradientTransform="translate(91.7283 409.109) scale(71.6737 67.5118)">
<stop stop-color="#038E43" stop-opacity="0.97"/>
<stop offset="0.08" stop-color="#038E43" stop-opacity="0.55"/>
<stop offset="0.17" stop-color="#038E43" stop-opacity="0.36"/>
<stop offset="0.26" stop-color="#038E43" stop-opacity="0.19"/>
<stop offset="0.35" stop-color="#038E43" stop-opacity="0.09"/>
<stop offset="0.45" stop-color="#038E43" stop-opacity="0.0361"/>
<stop offset="0.55" stop-color="#038E43" stop-opacity="0.0121"/>
<stop offset="0.67" stop-color="#038E43" stop-opacity="0.01"/>
<stop offset="0.8" stop-color="#038E43" stop-opacity="0.01"/>
<stop offset="1" stop-color="#038E43" stop-opacity="0"/>
</radialGradient>
<radialGradient id="paint3_radial_4194_4587" cx="0" cy="0" r="1" gradientUnits="userSpaceOnUse" gradientTransform="translate(280.728 406.109) scale(71.6737 67.5118)">
<stop stop-color="#038E43" stop-opacity="0.97"/>
<stop offset="0.08" stop-color="#038E43" stop-opacity="0.55"/>
<stop offset="0.17" stop-color="#038E43" stop-opacity="0.36"/>
<stop offset="0.26" stop-color="#038E43" stop-opacity="0.19"/>
<stop offset="0.35" stop-color="#038E43" stop-opacity="0.09"/>
<stop offset="0.45" stop-color="#038E43" stop-opacity="0.0361"/>
<stop offset="0.55" stop-color="#038E43" stop-opacity="0.0121"/>
<stop offset="0.67" stop-color="#038E43" stop-opacity="0.01"/>
<stop offset="0.8" stop-color="#038E43" stop-opacity="0.01"/>
<stop offset="1" stop-color="#038E43" stop-opacity="0"/>
</radialGradient>
<radialGradient id="paint4_radial_4194_4587" cx="0" cy="0" r="1" gradientUnits="userSpaceOnUse" gradientTransform="translate(467.728 406.109) scale(71.6737 67.5118)">
<stop stop-color="#038E43" stop-opacity="0.97"/>
<stop offset="0.08" stop-color="#038E43" stop-opacity="0.55"/>
<stop offset="0.17" stop-color="#038E43" stop-opacity="0.36"/>
<stop offset="0.26" stop-color="#038E43" stop-opacity="0.19"/>
<stop offset="0.35" stop-color="#038E43" stop-opacity="0.09"/>
<stop offset="0.45" stop-color="#038E43" stop-opacity="0.0361"/>
<stop offset="0.55" stop-color="#038E43" stop-opacity="0.0121"/>
<stop offset="0.67" stop-color="#038E43" stop-opacity="0.01"/>
<stop offset="0.8" stop-color="#038E43" stop-opacity="0.01"/>
<stop offset="1" stop-color="#038E43" stop-opacity="0"/>
</radialGradient>
<linearGradient id="paint5_linear_4194_4587" x1="198.824" y1="269" x2="269.033" y2="412.681" gradientUnits="userSpaceOnUse">
<stop stop-color="#333333"/>
<stop offset="1" stop-color="#0C183A"/>
</linearGradient>
<linearGradient id="paint6_linear_4194_4587" x1="198.824" y1="269" x2="269.033" y2="412.681" gradientUnits="userSpaceOnUse">
<stop stop-color="#333333"/>
<stop offset="1" stop-color="#0C183A"/>
</linearGradient>
</defs>
</svg>
